<svg width="200" height="102" fill="none" xmlns="http://www.w3.org/2000/svg"><g clip-path="url(#clip0_437_2210)"><path fill="#FFEBCD" d="M0 0h200v130H0z"/><g opacity=".04" clip-path="url(#clip1_437_2210)" fill="#000"><path d="M136.813 1.488a2.716 2.716 0 00-1.494-.362 5.332 5.332 0 00-.212-1.97 5.365 5.365 0 00-1.797-2.633 2.678 2.678 0 013.128-.33.891.891 0 10.892-1.545 4.464 4.464 0 00-5.611.957l-11.11-5.463-2.424-1.4a2.679 2.679 0 00-1.292-2.805 2.678 2.678 0 00-3.654.98l-3.567 6.177a2.679 2.679 0 00.979 3.654 2.68 2.68 0 003.076-.283l2.424 1.4 3.032 2.03-3.838 5.109a2.083 2.083 0 00.624 3.051l9.209 5.317a3.255 3.255 0 003.416-.09 3.256 3.256 0 001.47-3.085l-.44-4.165a5.3 5.3 0 003.394-.92c.232.45.59.84 1.06 1.112a2.738 2.738 0 003.736-1 2.737 2.737 0 00-1.001-3.736zm-25.27-6.284a.892.892 0 01-.326-1.218l3.566-6.178a.893.893 0 011.545.892l-3.567 6.178a.893.893 0 01-1.218.326zm5.883-4.84l1.545.891-2.675 4.634-1.545-.892 2.675-4.633zm10.196 21.423a1.461 1.461 0 01-1.553.04l-9.209-5.316a.295.295 0 01-.142-.198.293.293 0 01.053-.238l4.565-6.076c1.014-1.351 2.517-1.517 3.584-1.223.267.074.543.187.809.34a3.26 3.26 0 011.641 2.55l.355 3.367.001.008.564 5.343c.06.568-.19 1.092-.668 1.403zm1.81-7.57l-.289-2.739a5.104 5.104 0 00-1.259-2.886 5.175 5.175 0 00-2.489-1.534 5.169 5.169 0 00-2.923.04 5.05 5.05 0 00-2.191 1.387l-2.47-1.655 2.733-4.733 11.023 5.42A3.522 3.522 0 01133.4-.324c.29.953.175 1.952-.322 2.814a3.572 3.572 0 01-3.646 1.728zm5.538.463a.952.952 0 11.952-1.645.952.952 0 01-.952 1.645z"/><path d="M124.931 2.213a.891.891 0 11-1.544-.89.891.891 0 011.544.89zm11.952-5.008a.891.891 0 00-.891.892v1.372a.89.89 0 101.783 0v-1.373a.892.892 0 00-.892-.891z"/></g><g opacity=".04" clip-path="url(#clip2_437_2210)"><path d="M29.611 145.646l10.076-20.704.538.31a.834.834 0 001.143-.293l2.142-3.709a.834.834 0 00-.319-1.136l-1.896-1.095 1.081-9.261a.845.845 0 00-.42-.825.843.843 0 00-.926.048l-7.48 5.567-1.896-1.095a.834.834 0 00-1.143.293l-2.142 3.709a.834.834 0 00.319 1.136l.538.311-.924 1.366-2.58-1.49 4.534-7.855a.825.825 0 00.126-.41l.243-8.245a.846.846 0 00-.426-.755.845.845 0 00-.867.008l-6.994 4.318a.808.808 0 00-.302.299l-4.552 7.884-2.579-1.489.722-1.483.538.311a.834.834 0 001.143-.293l2.142-3.709a.834.834 0 00-.319-1.136l-1.896-1.095 1.081-9.26a.844.844 0 00-.42-.826.844.844 0 00-.926.048l-7.48 5.566-1.896-1.094a.835.835 0 00-1.143.292l-2.142 3.709a.835.835 0 00.318 1.137l.538.31-12.892 19.078a.816.816 0 00-.115.65.85.85 0 00.403.535l26.677 15.402a.835.835 0 001.144-.292.835.835 0 00-.318-1.137l-1.835-1.059 12.461-18.44 7.532 4.349-9.739 20.011-1.838-1.061a.835.835 0 00-1.143.292.835.835 0 00.318 1.137l2.621 1.513a.853.853 0 00.666.082.815.815 0 00.504-.424zm-6.526-37.95l5.314 3.069-4.13 7.152-5.314-3.068 4.13-7.153zm5.816-3.935l-.156 5.298-4.354-2.514 4.51-2.784zm-1.525 17.878l-10.612 15.702-2.294-1.324 3.452-5.979c.978-1.695.364-3.888-1.37-4.889-1.733-1-3.94-.436-4.918 1.259l-3.451 5.979-2.295-1.325 8.293-17.041 13.195 7.618zm-14.368 13.534l-3.364-1.942 3.452-5.979c.524-.907 1.704-1.209 2.632-.674.927.536 1.256 1.709.732 2.616l-3.452 5.979zm3.413-37.579l-.772 6.618-4.573-2.64 5.345-3.978zM7.5 101.413l10.076 5.817-1.317 2.28-10.076-5.817 1.317-2.28zm-13.33 22.883l12.46-18.44 7.532 4.349-9.739 20.011-10.254-5.92zm46.312-12.811l-.773 6.618-4.573-2.64 5.346-3.978zm-10.239 6.099l1.317-2.28 10.076 5.817-1.317 2.28-10.076-5.817z" fill="#000"/></g><g opacity=".04" clip-path="url(#clip3_437_2210)" fill="#000"><path d="M191.775 22.054a.833.833 0 001.141-.292.833.833 0 00-.318-1.135.833.833 0 00-1.141.292.833.833 0 00.318 1.135z"/><path d="M198.854 25.124L208.93 4.42l.538.31a.834.834 0 001.143-.292L212.752.73a.834.834 0 00-.318-1.136l-1.896-1.095 1.081-9.26a.843.843 0 00-.421-.826.844.844 0 00-.925.048l-7.48 5.566-1.896-1.094a.834.834 0 00-1.143.292l-2.142 3.71a.835.835 0 00.318 1.136l.538.31-.923 1.367-2.581-1.49 4.535-7.856a.824.824 0 00.126-.41l.243-8.245a.847.847 0 00-.426-.755.847.847 0 00-.867.009l-6.995 4.318a.815.815 0 00-.302.299L186.727-6.5l-2.579-1.489.722-1.483.538.31a.834.834 0 001.143-.292l2.141-3.71a.834.834 0 00-.318-1.136l-1.896-1.094 1.081-9.261a.843.843 0 00-.421-.826.845.845 0 00-.926.049l-7.479 5.566-1.896-1.095a.835.835 0 00-1.144.293l-2.141 3.71a.834.834 0 00.318 1.136l.538.31-12.892 19.078a.813.813 0 00-.115.65.85.85 0 00.403.535l26.677 15.402a.835.835 0 001.144-.293.835.835 0 00-.319-1.136l-1.834-1.06 12.461-18.44 7.532 4.35-9.739 20.01-1.838-1.06a.835.835 0 00-1.144.292.835.835 0 00.318 1.137l2.622 1.513a.853.853 0 00.665.082.814.814 0 00.505-.425zm-6.527-37.949l5.315 3.068-4.13 7.153-5.314-3.068 4.129-7.153zm5.817-3.936l-.156 5.299-4.354-2.514 4.51-2.785zm-1.525 17.878L186.007 16.82l-2.294-1.325 3.451-5.978c.979-1.695.365-3.888-1.369-4.889-1.733-1-3.939-.436-4.918 1.259l-3.452 5.979-2.294-1.325L183.424-6.5l13.195 7.617zm-14.368 13.535l-3.364-1.943 3.452-5.978c.523-.907 1.704-1.21 2.631-.674.928.536 1.256 1.709.733 2.616l-3.452 5.979zm3.413-37.58l-.772 6.619-4.573-2.64 5.345-3.978zm-8.922 3.82l10.076 5.817-1.316 2.28-10.076-5.818 1.316-2.28zm-13.33 22.883l12.461-18.44 7.532 4.348-9.739 20.012-10.254-5.92zm46.312-12.81l-.772 6.617-4.573-2.64 5.345-3.978zm-10.238 6.098l1.316-2.28L210.878.6l-1.316 2.28-10.076-5.817z"/><path d="M202.511 3.46l-.002-.002c-1.378-.795-3.132-.346-3.91 1.001l-2.09 3.621a.835.835 0 00.318 1.137l3.539 2.042a.834.834 0 001.143-.292l2.091-3.621c.778-1.347.289-3.09-1.089-3.886zm-2.051 5.949l-2.077-1.2 1.678-2.906c.323-.56 1.051-.746 1.623-.416l.002.002c.573.33.775 1.054.452 1.613L200.46 9.41zm-13.771-6.332a.835.835 0 001.144-.293L189.181.45a.834.834 0 00-.318-1.137.834.834 0 00-1.143.293l-1.349 2.335a.835.835 0 00.318 1.137z"/></g><g opacity=".04" clip-path="url(#clip4_437_2210)"><path d="M87.388 84.737l.134-1.003a2.485 2.485 0 00-.275-1.512 2.11 2.11 0 00.772-2.23l-.167-.624 1.188-2.059a18.807 18.807 0 001.448-3.148l.184-.05a2.11 2.11 0 001.49-2.58 2.095 2.095 0 00-.775-1.141c.29-2.235.174-4.482-.346-6.687l.004-.007a2.093 2.093 0 00.21-1.599 2.093 2.093 0 00-1.191-1.386 18.498 18.498 0 00-3.902-5.837 2.11 2.11 0 00-2.297-1.972 19 19 0 00-3.689-2.09 2.11 2.11 0 00-3.006-.99 18.527 18.527 0 00-6.654-.342 2.121 2.121 0 00-.407-.305 2.093 2.093 0 00-1.6-.21 2.094 2.094 0 00-1.426 1.29 18.581 18.581 0 00-5.525 2.901 2.101 2.101 0 00-1.707-.28 2.11 2.11 0 00-1.49 2.58l.165.617a18.832 18.832 0 00-1.795 2.583l-.048.083a2.48 2.48 0 00-2.399.36l-.8.618a1.582 1.582 0 00.175 2.625l3.461 1.998a.677.677 0 00.677-1.171l-3.46-1.998a.225.225 0 01-.116-.185.226.226 0 01.09-.198l.8-.618a1.135 1.135 0 011.265-.085l15.308 8.838c.503.29.863.76 1.013 1.32l1.42 5.302c.047.174.16.321.316.411l11.19 6.46c.4.232.62.679.558 1.138l-.134 1.002a.225.225 0 01-.127.177.225.225 0 01-.218-.007L73.204 77.51a2.161 2.161 0 01-1.013-1.32l-1.42-5.302a.676.676 0 00-.316-.411l-10.081-5.82a.677.677 0 00-.677 1.171l2.905 1.677-5.883 10.19a9.792 9.792 0 00-.736 8.24 1.63 1.63 0 00-.257.41 1.57 1.57 0 00.057 1.37 10.707 10.707 0 004.085 4.208 10.71 10.71 0 005.686 1.434 1.566 1.566 0 001.215-.636c.099-.132.174-.276.226-.426a9.795 9.795 0 006.77-4.76l.699-1.21 1.27.733a1.58 1.58 0 002.157-.578l2.036-3.526 5.098 2.943a1.582 1.582 0 002.362-1.16zm.48-8.104l-.511.887-.63-2.351 2.147-.576c-.29.699-.625 1.382-1.005 2.04zm2.454-3.828l-3.945 1.057-.391-1.458 3.945-1.057a.755.755 0 01.391 1.458zm-.246-2.834c-.164.004-.33.025-.495.07l-3.945 1.056-.32-1.192a.676.676 0 10-1.306.35l2.702 10.087a.75.75 0 01-.435.89l-1.052-.607-3.682-13.743 1.458-.391.238.89a.674.674 0 00.829.478.676.676 0 00.478-.829l-.238-.89 5.457-1.462.098-.028a17.22 17.22 0 01.213 5.321zM75.742 75.15l6.172-1.654.391 1.458-4.715 1.263-1.848-1.067zm4.494-7.917l1.328 4.956-4.338 1.163-1.328-4.957 4.338-1.162zm2.42 9.028l.913 3.408-4.322-2.495 3.408-.913zm7.218-13.24a.75.75 0 01-.459.351l-13.867 3.717-.39-1.458 13.867-3.716a.75.75 0 01.924.533.75.75 0 01-.075.573zm-15.067 1.303l-1.166-4.352 4.338-1.163 1.166 4.352-4.338 1.163zm-9.985-.924l-.238-1.002 4.985-1.335 1.61 6.007-6.357-3.67zm-.588-2.308l-.39-1.458 13.395-3.59.39 1.459-13.395 3.589zm11.97-8.907l.684 2.553-4.339 1.162-1.375-5.133a17.162 17.162 0 015.056.238c-.12.38-.131.786-.026 1.18zm8.4 4.85c.43-.116.805-.36 1.082-.698a17.124 17.124 0 012.866 4.303l-5.335 1.43-1.166-4.352 2.552-.684zm.183-2.232a.75.75 0 01-.534.924l-2.552.685-.391-1.458 2.553-.684a.755.755 0 01.924.533zm-2.689-1.461l-1.138.305-.3-1.117c.492.247.972.52 1.439.812zm-4.053-2.431a.756.756 0 01.924.533L81.91 62.42l-1.458.39-2.94-10.976a.75.75 0 01.075-.573.747.747 0 01.458-.351zm-9.185-.639a.75.75 0 01.572.075.75.75 0 01.352.459l1.459 5.444-1.458.391-1.46-5.445a.75.75 0 01.076-.572.75.75 0 01.459-.352zm-6.473 3.954a17.216 17.216 0 014.672-2.532l1.419 5.297-4.985 1.336-1.106-4.1zm-2.186-.043a.756.756 0 01.924.534l2.076 7.747-1.848-1.067-1.686-6.29a.755.755 0 01.534-.924zm-2.33 5.204c.324-.56.71-1.158 1.093-1.677l.732 2.73-1.825-1.053zm14.98 8.7l-1.975-7.374 1.458-.39L75.919 73.7l-.835.224-1.08-4.032a3.533 3.533 0 00-1.152-1.808zM57.892 78.37l5.883-10.19 1.186.686-2.946 5.103a.677.677 0 001.172.676l2.946-5.103 3.404 1.965 1.348 5.032c.244.91.828 1.67 1.644 2.142l.224.13-2.035 3.526a1.58 1.58 0 00.246 1.899l-.728 1.26a5.788 5.788 0 01-4.067 2.806 1.594 1.594 0 00-1.293-.845 4.803 4.803 0 01-2.062-.637 4.797 4.797 0 01-1.582-1.467 1.595 1.595 0 00-1.376-.698 5.716 5.716 0 01.394-4.924l1.449-2.509a.677.677 0 00-1.172-.676l-1.449 2.509a7.16 7.16 0 00-.548 5.915l-1.326.355a8.444 8.444 0 01.688-6.955zm7.793 13.543a.22.22 0 01-.171.09 9.36 9.36 0 01-4.969-1.253 9.355 9.355 0 01-3.569-3.676.23.23 0 01.147-.327l2.735-.733a.228.228 0 01.174.025.23.23 0 01.08.075 6.141 6.141 0 002.025 1.878 6.145 6.145 0 002.64.814.237.237 0 01.213.171l.733 2.736a.23.23 0 01-.038.2zm6.91-5.055a8.446 8.446 0 01-5.68 4.073l-.356-1.325a7.144 7.144 0 004.849-3.433l.7-1.211 1.185.685-.699 1.211zm4.125-1.055a.226.226 0 01-.308.082l-4.44-2.564a.226.226 0 01-.083-.308l2.036-3.526 4.831 2.79-2.036 3.526z" fill="#000"/></g><g opacity=".04" clip-path="url(#clip5_437_2210)"><path d="M213.037 129.612l.135-1.003a2.479 2.479 0 00-.275-1.512 2.11 2.11 0 00.772-2.23l-.167-.624 1.188-2.059a18.729 18.729 0 001.448-3.148l.184-.049a2.11 2.11 0 001.49-2.582 2.091 2.091 0 00-.775-1.14 18.57 18.57 0 00-.346-6.687l.004-.007a2.094 2.094 0 00.211-1.599 2.095 2.095 0 00-1.192-1.386 18.508 18.508 0 00-3.902-5.838 2.11 2.11 0 00-2.297-1.972 19.008 19.008 0 00-3.689-2.09 2.11 2.11 0 00-3.006-.988 18.526 18.526 0 00-6.655-.343 2.09 2.09 0 00-.407-.305 2.093 2.093 0 00-1.599-.21 2.095 2.095 0 00-1.426 1.29 18.58 18.58 0 00-5.525 2.901 2.102 2.102 0 00-1.707-.28 2.11 2.11 0 00-1.491 2.58l.166.617a18.732 18.732 0 00-1.795 2.582l-.049.084a2.482 2.482 0 00-2.398.359l-.8.619a1.58 1.58 0 00.175 2.625l3.461 1.998a.676.676 0 00.677-1.171l-3.461-1.998a.226.226 0 01-.115-.185.224.224 0 01.089-.198l.801-.618a1.133 1.133 0 011.265-.085l15.307 8.838c.504.29.864.759 1.014 1.32l1.42 5.302a.68.68 0 00.316.411l11.189 6.46c.402.232.621.679.559 1.138l-.135 1.003a.222.222 0 01-.127.176.227.227 0 01-.217-.007l-12.498-7.216a2.156 2.156 0 01-1.013-1.321l-1.421-5.301a.675.675 0 00-.315-.411l-10.081-5.821a.677.677 0 00-.677 1.172l2.905 1.677-5.883 10.189a9.795 9.795 0 00-.736 8.242 1.57 1.57 0 00-.257.409c-.192.445-.172.944.057 1.37a10.704 10.704 0 004.085 4.208 10.705 10.705 0 005.686 1.434 1.567 1.567 0 001.215-.636c.098-.132.174-.276.226-.426a9.8 9.8 0 006.77-4.759l.699-1.212 1.271.734a1.58 1.58 0 002.156-.578l2.036-3.526 5.098 2.943a1.58 1.58 0 001.491.05 1.58 1.58 0 00.871-1.21zm.482-8.104l-.512.887-.63-2.351 2.147-.576c-.29.699-.626 1.382-1.005 2.04zm2.453-3.828l-3.946 1.057-.39-1.458 3.945-1.057a.756.756 0 01.925.534.757.757 0 01-.534.924zm-.247-2.834a2.115 2.115 0 00-.494.069l-3.945 1.057-.32-1.192a.677.677 0 10-1.307.35l2.703 10.087a.75.75 0 01-.435.89l-1.052-.607-3.682-13.743 1.458-.391.238.889a.675.675 0 101.307-.35l-.238-.889 5.457-1.463c.033-.009.065-.018.097-.029.348 1.76.419 3.545.213 5.322zm-14.334 5.178l6.173-1.654.391 1.458-4.715 1.263-1.849-1.067zm4.495-7.917l1.328 4.956-4.339 1.163-1.328-4.957 4.339-1.162zm2.419 9.028l.913 3.408-4.321-2.495 3.408-.913zm7.219-13.24a.752.752 0 01-.459.351l-13.867 3.717-.391-1.458 13.868-3.717a.748.748 0 01.572.076.755.755 0 01.277 1.031zm-15.068 1.303l-1.166-4.352 4.339-1.163 1.166 4.352-4.339 1.163zm-9.984-.924l-.238-1.002 4.985-1.335 1.609 6.007-6.356-3.67zm-.588-2.308l-.391-1.458 13.395-3.589.391 1.457-13.395 3.59zm11.97-8.907l.684 2.553-4.339 1.162-1.375-5.133a17.163 17.163 0 015.056.237c-.121.38-.131.787-.026 1.181zm8.399 4.849a2.09 2.09 0 001.083-.697 17.132 17.132 0 012.866 4.303l-5.335 1.43-1.166-4.352 2.552-.684zm.184-2.23a.75.75 0 01-.076.572.752.752 0 01-.458.352l-2.553.684-.39-1.458 2.552-.684a.756.756 0 01.925.533zm-2.689-1.462l-1.138.305-.3-1.117c.491.248.972.52 1.438.812zm-4.053-2.431a.755.755 0 01.924.533l2.941 10.977-1.458.39-2.941-10.976a.753.753 0 01.534-.924zm-9.186-.639a.752.752 0 01.925.534l1.459 5.445-1.458.39-1.459-5.445a.751.751 0 01.533-.924zm-6.472 3.954a17.205 17.205 0 014.671-2.532l1.42 5.297-4.985 1.336-1.106-4.1zm-2.186-.043a.755.755 0 01.924.534l2.076 7.747-1.849-1.067-1.685-6.29a.756.756 0 01.534-.924zm-2.33 5.204c.324-.561.71-1.157 1.093-1.677l.732 2.73-1.825-1.053zm14.98 8.7l-1.975-7.374 1.458-.391 3.585 13.38-.835.224-1.08-4.032a3.532 3.532 0 00-1.153-1.807zm-14.96 10.285l5.883-10.189 1.186.684-2.946 5.104a.677.677 0 101.171.676l2.947-5.103 3.404 1.965 1.348 5.031a3.508 3.508 0 001.644 2.143l.224.129-2.036 3.527a1.58 1.58 0 00.247 1.899l-.728 1.261a5.79 5.79 0 01-4.067 2.805 1.594 1.594 0 00-1.293-.845 4.793 4.793 0 01-2.062-.637 4.78 4.78 0 01-1.582-1.467 1.596 1.596 0 00-1.376-.698 5.716 5.716 0 01.394-4.924l1.449-2.509a.677.677 0 00-1.172-.676l-1.449 2.509a7.16 7.16 0 00-.548 5.915l-1.326.355a8.446 8.446 0 01.688-6.955zm7.792 13.543a.216.216 0 01-.17.09 9.36 9.36 0 01-4.969-1.253 9.357 9.357 0 01-3.569-3.676.218.218 0 01-.007-.193.23.23 0 01.154-.134l2.735-.733a.227.227 0 01.173.024c.032.019.06.044.082.076a6.137 6.137 0 002.024 1.878 6.143 6.143 0 002.639.814.238.238 0 01.214.171l.733 2.735a.23.23 0 01-.039.201zm6.91-5.055a8.444 8.444 0 01-5.68 4.073l-.355-1.325a7.144 7.144 0 004.849-3.433l.699-1.211 1.186.685-.699 1.211zm4.126-1.055a.226.226 0 01-.308.082l-4.441-2.564a.226.226 0 01-.082-.308l2.036-3.526 4.831 2.789-2.036 3.527z" fill="#000"/></g><g opacity=".04" clip-path="url(#clip6_437_2210)"><path d="M139.334 69.545a.746.746 0 00-.013-.046l-.573-1.926-1.007-3.577-.753-2.642 2.362-.593a.785.785 0 00.566-.98l-.721-2.531a.849.849 0 00-1.013-.585l-.918.23-.905-4.018 14.394-2.78a.794.794 0 00.518-.35l4.196-6.472a.792.792 0 00.097-.649.844.844 0 00-.43-.516l-7.073-3.649a.843.843 0 00-.636-.06l-13.398 4.19-3.098-13.687a.84.84 0 00-.37-.52l-6.696-4.301a.844.844 0 00-.662-.114.79.79 0 00-.514.409l-3.506 6.869a.795.795 0 00-.044.623l4.787 13.893-3.902 1.187-.259-.91a.849.849 0 00-1.013-.584l-2.552.64a.785.785 0 00-.566.981l.667 2.342-2.667.658-5.598 1.405a2.884 2.884 0 00-2.077 3.614c.218.759.73 1.41 1.423 1.813.696.405 1.52.524 2.289.33l8.217-2.063.668 2.342a.848.848 0 001.012.585l2.553-.64a.785.785 0 00.566-.982l-.211-.928 4.574-.874 1.529 4.397-.918.23a.785.785 0 00-.566.982l.721 2.53a.848.848 0 001.012.585l2.363-.593.753 2.642 1.018 3.574.551 1.931a3.113 3.113 0 003.71 2.18 2.882 2.882 0 002.113-3.592zm-3.674-12.259l-1.97.495-1.19-4.174 2.229-.428.931 4.107zM120.78 31.66l2.954-5.779 5.633 3.624 3.056 13.542-2.706.84-1.328-4.663a.848.848 0 00-1.057-.508.784.784 0 00-.522.904l1.386 4.779-2.691.848-4.725-13.587zm-11.535 23.943a1.4 1.4 0 01-1.044-.148c-.633-.43-.807-1.273-.389-1.884.168-.244.414-.425.701-.514l1.12-.281.752 2.576-1.14.25zm2.731-.686l-.723-2.56 2.026-.508.747 2.62-2.05.448zm3.616-.907l-.746-2.62 1.892-.41.747 2.62-1.893.41zm4.345 2.257l-.665-2.33-1.192-4.186-.648-2.293.963-.242 2.531 8.88-.989.171zm2.068-2.339l-.557-1.953 18.696-4.693a.786.786 0 00.645-.936.848.848 0 00-1.091-.63l-18.696 4.694-.557-1.954 4.783-1.486 22.421-6.9 5.955 3.066-3.528 5.447-14.881 2.861-13.19 2.484zm6.639.374l2.27-.368 1.212 4.252-1.971.494-1.511-4.378zm2.845 6.678l-2.325.661-.272-.955 8.956-2.248.272.955-2.362.593-4.269.994zm1.237 1.373l2.679-.596.529 1.854-2.643.663-.565-1.921zm1.55 5.439l-.573-2.01 2.642-.662.573 2.009-2.642.663zm2.504 3.754l-.038-.068a1.45 1.45 0 01-1.694-.978l-.316-1.11 2.65-.594.316 1.11a1.312 1.312 0 01-.918 1.64z" fill="#000"/></g><g opacity=".04" clip-path="url(#clip7_437_2210)"><path d="M9.838 19.54a3.994 3.994 0 00-.013-.045l-.573-1.926-1.007-3.577-.753-2.642 2.362-.593a.785.785 0 00.566-.98L9.7 7.245a.848.848 0 00-1.013-.585l-.918.23-.905-4.018L21.257.092a.793.793 0 00.518-.35l4.196-6.471a.79.79 0 00.097-.649.844.844 0 00-.43-.517l-7.073-3.648a.84.84 0 00-.635-.06l-13.4 4.19L1.434-21.1a.84.84 0 00-.37-.52l-6.696-4.302a.844.844 0 00-.662-.113.79.79 0 00-.514.408l-3.506 6.87a.793.793 0 00-.044.623L-5.57-4.242l-3.903 1.188-.259-.91a.848.848 0 00-1.012-.585l-2.553.641a.785.785 0 00-.566.98l.668 2.343-2.668.658-5.598 1.405a2.883 2.883 0 00-2.076 3.614c.218.758.729 1.41 1.422 1.813a3.07 3.07 0 002.29.33l8.217-2.063.667 2.342A.848.848 0 00-9.93 8.1l2.553-.641a.785.785 0 00.566-.98l-.21-.93 4.573-.874 1.53 4.398-.919.23a.785.785 0 00-.566.981l.721 2.531a.848.848 0 001.013.585l2.362-.593.753 2.641 1.019 3.575.55 1.931a3.112 3.112 0 003.71 2.18 2.883 2.883 0 002.113-3.592zM6.164 7.283l-1.97.495-1.19-4.174 2.23-.429.93 4.108zm-14.88-25.626l2.954-5.779L-.13-20.5 2.927-6.958l-2.705.84-1.33-4.662a.848.848 0 00-1.055-.509.784.784 0 00-.523.905L-1.3-5.605l-2.691.848-4.725-13.587zM-20.25 5.598c-.35.09-.726.036-1.044-.148-.633-.429-.807-1.272-.388-1.883a1.32 1.32 0 01.7-.515l1.12-.28.752 2.576-1.14.25zm2.732-.685l-.724-2.56 2.026-.509.747 2.62-2.05.449zm3.616-.908l-.747-2.62 1.893-.41.746 2.62-1.892.41zm4.344 2.258l-.665-2.331-1.192-4.185-.648-2.293.963-.242 2.53 8.88-.988.171zm2.068-2.339l-.556-1.954 18.695-4.693a.786.786 0 00.645-.935.848.848 0 00-1.09-.63L-8.495.405l-.556-1.953 4.782-1.486 22.421-6.901 5.955 3.067-3.528 5.447L5.7 1.44-7.49 3.924zm6.639.374l2.27-.368L2.63 8.18l-1.97.495-1.512-4.378zm2.845 6.678l-2.325.66-.272-.954 8.956-2.248.272.955-2.362.593-4.269.994zm1.237 1.372l2.68-.595.528 1.854-2.642.663-.566-1.922zm1.55 5.44l-.572-2.01 2.642-.663.572 2.01-2.642.663zm2.504 3.754l-.037-.068a1.45 1.45 0 01-1.695-.978l-.316-1.11 2.65-.594.316 1.11a1.312 1.312 0 01-.918 1.64z" fill="#000"/></g><g opacity=".04" clip-path="url(#clip8_437_2210)" fill="#000"><path d="M14.507 50.902a2.935 2.935 0 00-4.005 1.073 2.935 2.935 0 001.073 4.005c1.4.809 3.196.327 4.005-1.073a2.935 2.935 0 00-1.073-4.005zm-2.095 3.627a1.258 1.258 0 01-.46-1.716 1.258 1.258 0 011.717-.46 1.258 1.258 0 01-1.256 2.176zM7.68 62.727a.837.837 0 10-.839 1.45.837.837 0 00.84-1.45zm-3.627-2.094a.837.837 0 10-.839 1.45.837.837 0 00.84-1.45zM.426 58.539a.837.837 0 10-.839 1.45.837.837 0 00.84-1.45zm10.881 6.281a.837.837 0 10-.839 1.45.837.837 0 00.84-1.45zm3.627 2.095a.837.837 0 10-.839 1.45.837.837 0 00.84-1.45zm3.627 2.094a.837.837 0 10-.839 1.45.837.837 0 00.839-1.45z"/><path d="M34.836 58.578a2.935 2.935 0 00-1.074-4.005 2.935 2.935 0 00-4.004 1.073c-.217.375-.34.778-.378 1.184a39.405 39.405 0 01-3.55.438c-.05-.831-.03-2.17.056-3.497a2.927 2.927 0 002.053-1.424 2.935 2.935 0 00-1.073-4.005 2.935 2.935 0 00-4.005 1.073 2.916 2.916 0 00-.373 1.791c-1.035.394-2.293.819-3.449 1.06-.184-1.216-.294-2.663-.33-4.363a2.92 2.92 0 001.687-1.338 2.935 2.935 0 00-1.073-4.004 2.935 2.935 0 00-4.005 1.073 2.92 2.92 0 00-.315 2.13c-1.491.818-2.799 1.447-3.944 1.895-.368-1.121-.63-2.424-.806-3.517a2.916 2.916 0 001.364-1.218 2.935 2.935 0 00-1.073-4.005 2.935 2.935 0 00-4.004 1.073 2.927 2.927 0 00-.207 2.49c-1.107.739-2.256 1.425-3 1.797a39.45 39.45 0 01-1.396-3.293 2.935 2.935 0 00-.237-4.924 2.935 2.935 0 00-4.005 1.073A2.936 2.936 0 00-1.8 40.71c-.135.284-.269.574-.402.87a2.487 2.487 0 00-1.306.35c-.601.351-1.08.93-1.35 1.628-.269.7-.3 1.45-.09 2.113.145.457.4.848.735 1.136a17.222 17.222 0 00-.378 1.408 2.515 2.515 0 00-2.318 1.252 2.517 2.517 0 00.266 2.889L-9.3 56.958a2.517 2.517 0 00-2.635 1.214c-.693 1.2-.28 2.74.92 3.433L18 78.356c1.2.693 2.74.28 3.432-.92a2.517 2.517 0 00-.266-2.889l2.657-4.602a2.517 2.517 0 002.635-1.214 2.515 2.515 0 00-.075-2.633c.304-.275.648-.62 1.03-1.032a2.49 2.49 0 001.353.069c.68-.15 1.313-.553 1.784-1.135.47-.582.731-1.286.735-1.983a2.487 2.487 0 00-.35-1.306c.19-.263.374-.525.552-.783a2.936 2.936 0 003.349-1.352zm-5.251 1.141a2.523 2.523 0 00-1.16-.012c-.68.15-1.314.553-1.785 1.135-.47.583-.731 1.287-.735 1.983a2.52 2.52 0 00.255 1.13c-.505.542-.858.873-1.094 1.072l-10.772-6.22a.838.838 0 10-.837 1.452l11.24 6.49.003.001h.002a.839.839 0 01-.839 1.451L-5.153 51.45a.839.839 0 01.837-1.451h.001l.003.002 11.24 6.49a.838.838 0 00.838-1.451l-10.771-6.22c.054-.303.164-.774.38-1.482.377-.025.756-.14 1.107-.345.601-.351 1.08-.93 1.35-1.628.268-.699.3-1.45.09-2.112a2.521 2.521 0 00-.59-1c.118-.262.237-.52.356-.772.22.042.443.057.663.048.573 1.533 1.39 3.492 2.338 5.113.777 1.33 1.642 2.27 2.625 2.838 1.162.67 2.489.82 4.03.474 2.224-.501 4.681-1.738 6.488-2.734a2.926 2.926 0 001.201.694c.041 2.062.199 4.809.877 6.986.47 1.508 1.263 2.582 2.425 3.252.983.568 2.23.847 3.77.855 1.88.01 3.983-.262 5.597-.532a2.9 2.9 0 00.374.55c-.16.23-.323.461-.491.695zm-37.363-2.048l2.513-4.353L22.3 69.233l-2.513 4.353L-7.778 57.67zm40.703-1.647c.6.346.806 1.116.46 1.716a1.258 1.258 0 01-2.176-1.256 1.258 1.258 0 011.716-.46zm-6.897-6.231a1.257 1.257 0 01-1.256 2.176 1.258 1.258 0 01-.46-1.716 1.258 1.258 0 011.716-.46zm-2.887 2.957a2.918 2.918 0 001.08.815c-.088 1.297-.124 2.747-.064 3.766h-.042c-2.661-.014-3.952-.836-4.605-2.93a9.975 9.975 0 01-.14-.493c1.287-.269 2.66-.733 3.771-1.158zm-4.656-8.739a1.258 1.258 0 01-1.256 2.176 1.258 1.258 0 01-.46-1.716 1.258 1.258 0 011.716-.46zM9.707 40.37c.6.346.806 1.116.46 1.716A1.258 1.258 0 017.99 40.83a1.258 1.258 0 011.716-.46zm-2.363 3.45a2.925 2.925 0 001.245.528c.188 1.175.472 2.597.884 3.846-.17.046-.336.088-.497.124-2.14.482-3.498-.225-4.84-2.522l-.022-.037c.913-.458 2.15-1.213 3.23-1.938zm-8.198-5.848a1.258 1.258 0 011.716-.46 1.258 1.258 0 01-1.256 2.176 1.258 1.258 0 01-.46-1.716zm-1.81 5.405c.123-.072.365-.18.602-.088.026.01.05.021.072.034.187.108.277.314.316.435.094.298.073.664-.058 1.004-.13.34-.36.626-.63.783-.124.072-.366.18-.603.088-.237-.09-.344-.333-.388-.47-.094-.297-.073-.663.058-1.003.13-.34.36-.626.63-.783zm21.501 33.529l-29.016-16.752a.839.839 0 01.838-1.451l29.016 16.752a.839.839 0 01-.838 1.451zm10.41-13.958c-.23.284-.536.485-.841.552-.14.03-.403.058-.6-.101-.198-.16-.226-.423-.225-.566.001-.312.133-.654.363-.938.229-.283.535-.484.84-.551.125-.028.348-.053.534.055a.515.515 0 01.067.045c.197.16.225.423.224.566-.001.313-.134.655-.363.938z"/><path d="M11.03 56.923a.837.837 0 10-.838 1.45.837.837 0 00.838-1.45z"/></g><g opacity=".04" clip-path="url(#clip9_437_2210)" fill="#000"><path d="M194.006 50.902a2.934 2.934 0 00-4.004 1.073 2.934 2.934 0 001.073 4.005c1.4.809 3.196.327 4.004-1.073a2.934 2.934 0 00-1.073-4.005zm-2.094 3.627a1.258 1.258 0 01-.46-1.716 1.259 1.259 0 011.717-.46c.6.347.806 1.117.46 1.717a1.26 1.26 0 01-1.717.46zm-4.732 8.198h-.001a.838.838 0 10.001 0zm-3.627-2.094a.837.837 0 10-.837 1.449.837.837 0 00.837-1.45zm-3.627-2.094a.837.837 0 10-.837 1.449.837.837 0 00.837-1.45zm-3.627-2.094a.837.837 0 10-.837 1.449.837.837 0 00.837-1.45zm14.508 8.375h-.001a.838.838 0 10.001 0zm3.627 2.095h-.001a.838.838 0 10.001 0zm3.627 2.094h-.001a.838.838 0 10.001 0z"/><path d="M214.335 58.578a2.934 2.934 0 00-1.073-4.005 2.934 2.934 0 00-4.383 2.257 39.38 39.38 0 01-3.549.438c-.051-.831-.031-2.17.056-3.497a2.93 2.93 0 00.979-5.429 2.934 2.934 0 00-4.004 1.073 2.914 2.914 0 00-.373 1.791c-1.035.394-2.293.819-3.449 1.06-.185-1.216-.294-2.663-.33-4.363a2.923 2.923 0 001.687-1.338 2.935 2.935 0 00-1.074-4.004 2.934 2.934 0 00-4.004 1.073 2.918 2.918 0 00-.315 2.13c-1.491.818-2.799 1.447-3.944 1.895-.369-1.121-.63-2.424-.806-3.517a2.918 2.918 0 001.364-1.218 2.935 2.935 0 00-1.073-4.005 2.935 2.935 0 00-4.005 1.073 2.924 2.924 0 00-.206 2.49c-1.107.739-2.256 1.425-3.001 1.797a39.415 39.415 0 01-1.395-3.293 2.935 2.935 0 00-.237-4.924 2.935 2.935 0 00-4.005 1.073 2.937 2.937 0 00.504 3.575c-.135.284-.269.574-.402.87a2.49 2.49 0 00-1.307.35c-.601.351-1.08.93-1.349 1.628-.269.7-.301 1.45-.091 2.113.145.457.402.848.736 1.136a17.26 17.26 0 00-.379 1.408 2.514 2.514 0 00-2.317 1.252 2.517 2.517 0 00.266 2.889l-2.657 4.602a2.517 2.517 0 00-2.635 1.214c-.693 1.2-.28 2.74.92 3.433L197.5 78.356a2.515 2.515 0 003.432-.92 2.517 2.517 0 00-.266-2.889l2.657-4.602a2.517 2.517 0 002.635-1.214 2.517 2.517 0 00-.075-2.633c.304-.275.647-.62 1.03-1.032.417.145.884.172 1.352.069.68-.15 1.314-.553 1.784-1.135.471-.582.732-1.286.736-1.983a2.49 2.49 0 00-.351-1.306c.19-.263.374-.525.553-.783a2.936 2.936 0 003.348-1.352zm-5.25 1.141a2.525 2.525 0 00-1.161-.012c-.68.15-1.313.553-1.784 1.135-.47.583-.731 1.287-.735 1.983-.002.406.088.792.254 1.13-.504.542-.857.873-1.093 1.072l-10.772-6.22a.837.837 0 10-.837 1.452l11.241 6.49.002.001h.001a.838.838 0 01-.838 1.451L174.347 51.45a.839.839 0 01.837-1.451h.001l.003.002 11.24 6.49a.837.837 0 10.838-1.451l-10.772-6.22c.055-.303.165-.774.382-1.482a2.52 2.52 0 001.106-.345c.601-.351 1.08-.93 1.349-1.628.269-.699.302-1.45.091-2.112a2.522 2.522 0 00-.59-1c.118-.262.237-.52.356-.772.22.042.443.057.663.048.573 1.533 1.389 3.492 2.337 5.113.778 1.33 1.643 2.27 2.626 2.838 1.162.67 2.489.82 4.03.474 2.223-.501 4.681-1.738 6.488-2.734a2.938 2.938 0 001.201.694c.041 2.062.199 4.809.877 6.986.47 1.508 1.263 2.582 2.425 3.252.983.568 2.231.847 3.77.855 1.879.01 3.983-.262 5.597-.532.103.196.227.38.373.55-.158.23-.322.461-.49.695zm-37.363-2.048l2.513-4.353L201.8 69.233l-2.513 4.353-27.565-15.915zm40.703-1.647c.6.346.806 1.116.46 1.716a1.26 1.26 0 01-1.717.46 1.258 1.258 0 01-.46-1.717 1.259 1.259 0 011.717-.46zm-6.897-6.231c.6.346.806 1.116.46 1.716a1.257 1.257 0 11-.46-1.716zm-2.887 2.957a2.916 2.916 0 001.08.815c-.088 1.297-.124 2.747-.064 3.766h-.042c-2.661-.014-3.953-.836-4.605-2.93a11.826 11.826 0 01-.141-.493c1.287-.269 2.662-.733 3.772-1.158zm-4.656-8.739c.6.347.806 1.117.46 1.717a1.257 1.257 0 11-.46-1.716zm-8.779-3.641a1.257 1.257 0 01-1.256 2.176 1.258 1.258 0 01-.46-1.716 1.258 1.258 0 011.716-.46zm-2.363 3.45a2.92 2.92 0 001.246.528c.187 1.175.472 2.597.883 3.846-.17.046-.335.088-.496.124-2.141.482-3.498-.225-4.841-2.522l-.021-.037c.912-.458 2.15-1.213 3.229-1.938zm-8.197-5.848a1.257 1.257 0 012.176 1.257 1.257 1.257 0 01-2.176-1.257zm-1.811 5.405c.124-.072.366-.18.603-.088a.51.51 0 01.072.034c.187.108.277.314.315.435.095.298.074.664-.057 1.004-.131.34-.361.626-.631.783-.123.072-.366.18-.602.088-.237-.09-.345-.333-.388-.47-.094-.297-.073-.663.058-1.003.131-.34.36-.626.63-.783zm21.502 33.529l-29.016-16.752a.838.838 0 01.838-1.451l29.016 16.752a.838.838 0 01-.838 1.451zm10.409-13.958c-.229.284-.535.485-.84.552-.14.03-.403.058-.601-.101-.197-.16-.225-.423-.225-.566.002-.312.134-.654.363-.938.229-.283.536-.484.841-.551.124-.028.347-.053.534.055a.467.467 0 01.066.045c.198.16.226.423.225.566-.001.313-.134.655-.363.938z"/><path d="M190.53 56.923a.837.837 0 10-.837 1.45.837.837 0 00.837-1.45z"/></g><g opacity=".04" clip-path="url(#clip10_437_2210)"><path d="M120.839 84.782c1.666-1.3 3.526-2.162 5.525-2.563 3.816-.764 8.166.179 12.581 2.728l13.181 7.61a.757.757 0 01-.028 1.328l-5.206 2.72a.76.76 0 01-.731-.015l-9.018-5.206-1.406 2.436c.181.083.363.169.547.261 2.025 1.014 4.253 2.608 6.813 4.871l4.497 2.596c.362.21.487.673.277 1.036l-7.064 12.236a.758.758 0 01-1.412-.315l-.531-6.233-4.833-2.79c-.427-.214-.986-.816-2.113-2.089-.304-.343-.698-.788-1.021-1.13-1.049 2.21-1.689 4.855.462 7.165l7.146 7.674a.76.76 0 01.151.793l-3.29 8.426a.756.756 0 01-1.085.381.77.77 0 01-.152-.115l-2.894-2.837-.01-.009-2.362-2.316a.758.758 0 011.061-1.083l1.562 1.531 2.812-7.063-4.049-4.349c-1.388-1.491-1.997-3.251-1.808-5.23.169-1.783.963-3.437 1.545-4.525a.758.758 0 01.807-.388c.46.086.864.495 2.26 2.07.556.628 1.394 1.574 1.657 1.737a.686.686 0 01.054.029l5.201 3.002a.76.76 0 01.376.592l.36 4.223 5.478-9.489-3.907-2.255a.847.847 0 01-.124-.089c-2.483-2.202-4.623-3.74-6.543-4.701-2.109-1.057-3.969-1.434-5.686-1.156-2.751.447-5.213 2.613-7.528 6.621l-5.027 8.708 2.872 1.658c1.708.986 4.674 4.162 4.674 4.162a.76.76 0 01-1.064 1.081s-2.839-3.047-4.368-3.929l-3.529-2.038a.759.759 0 01-.278-1.036l3.409-5.904-3.043-1.756-2.478 4.293a.76.76 0 01-.669.379l-4.671-.075a.763.763 0 01-.648-.385.758.758 0 01.004-.753l8.759-15.172c1.282-2.22 2.798-4.02 4.505-5.353zm11.821 38.241l1.711 1.678 2.7-6.914-1.629-1.75-2.782 6.986zm-15.864-22.488l3.043 1.756 1.239-2.147c2.557-4.428 5.369-6.835 8.598-7.36 1.469-.238 3-.083 4.637.468l1.511-2.615c-6.754-3.605-12.202-1.926-16.201 5l-2.827 4.898zm-7.264 4.414l2.936.048 5.842-10.118c2.352-4.075 5.273-6.535 8.681-7.313 3.126-.713 6.576.002 10.254 2.126l9.314 5.377 3.614-1.889-11.986-6.92c-8.515-4.916-16.001-3.227-20.539 4.633l-8.116 14.056z" fill="#000"/></g><g opacity=".04" clip-path="url(#clip11_437_2210)" fill="#000"><path d="M60.578-6.25c1.667-1.3 3.526-2.162 5.525-2.563 3.816-.765 8.166.178 12.581 2.727l13.181 7.61a.758.758 0 01-.028 1.33l-5.206 2.72a.759.759 0 01-.73-.016L76.882.352l-1.407 2.436c.181.083.363.169.547.261 2.025 1.014 4.254 2.608 6.813 4.87l4.497 2.597c.363.21.487.673.278 1.036l-7.064 12.235a.758.758 0 01-1.412-.314l-.532-6.233-4.832-2.79c-.428-.214-.987-.816-2.114-2.089a51.608 51.608 0 00-1.021-1.13c-1.049 2.21-1.688 4.855.463 7.164l7.145 7.675a.758.758 0 01.152.792l-3.29 8.427a.757.757 0 01-1.237.266l-2.895-2.837-.01-.01-2.362-2.315a.758.758 0 111.061-1.083l1.562 1.53 2.813-7.063-4.05-4.348c-1.388-1.491-1.996-3.251-1.808-5.23.17-1.784.963-3.437 1.545-4.525a.758.758 0 01.807-.388c.46.085.865.494 2.26 2.07.556.627 1.395 1.574 1.657 1.737a.852.852 0 01.055.029l5.2 3.002a.758.758 0 01.376.592l.36 4.222 5.478-9.488-3.907-2.255a.77.77 0 01-.123-.09c-2.484-2.201-4.624-3.739-6.544-4.7-2.108-1.057-3.968-1.435-5.685-1.156-2.752.447-5.214 2.612-7.528 6.62l-5.028 8.71 2.872 1.657c1.708.986 4.674 4.162 4.674 4.162a.758.758 0 01-1.064 1.08s-2.839-3.046-4.368-3.929l-3.529-2.037a.758.758 0 01-.277-1.036l3.408-5.904-3.042-1.757-2.479 4.293a.758.758 0 01-.669.38l-4.67-.076a.759.759 0 01-.645-1.137l8.76-15.172c1.282-2.22 2.797-4.021 4.504-5.353zM72.4 31.991l1.711 1.677 2.7-6.913-1.63-1.75-2.78 6.986zM56.535 9.502l3.043 1.757 1.24-2.147c2.556-4.428 5.368-6.835 8.598-7.36 1.469-.238 3-.084 4.636.468l1.51-2.616c-6.753-3.604-12.2-1.925-16.2 5l-2.827 4.898zm-7.263 4.415l2.936.047 5.841-10.118c2.353-4.074 5.274-6.534 8.682-7.312 3.125-.713 6.575.002 10.253 2.125l9.314 5.378 3.614-1.889-11.986-6.92C69.411-9.688 61.926-8 57.386-.14l-8.114 14.056z"/><path d="M67.015 26.733l.012.01a.758.758 0 11-.935 1.193l-.012-.009a.758.758 0 01.935-1.194z"/></g></g><defs><clipPath id="clip0_437_2210"><path fill="#fff" d="M0 0h200v130H0z"/></clipPath><clipPath id="clip1_437_2210"><path fill="#fff" transform="rotate(30 101.888 210.353)" d="M0 0h30.436v30.436H0z"/></clipPath><clipPath id="clip2_437_2210"><path fill="#fff" transform="rotate(30 -160.967 67.57)" d="M0 0h43.119v42.16H0z"/></clipPath><clipPath id="clip3_437_2210"><path fill="#fff" transform="rotate(30 148.55 323.12)" d="M0 0h43.119v42.16H0z"/></clipPath><clipPath id="clip4_437_2210"><path fill="#fff" transform="rotate(30 -43.533 136.381)" d="M0 0h46.179v46.179H0z"/></clipPath><clipPath id="clip5_437_2210"><path fill="#fff" transform="rotate(30 -64.446 393.284)" d="M0 0h46.179v46.179H0z"/></clipPath><clipPath id="clip6_437_2210"><path fill="#fff" transform="rotate(30 17.508 241.52)" d="M0 0h37.899v36.715H0z"/></clipPath><clipPath id="clip7_437_2210"><path fill="#fff" transform="rotate(30 46.067 -25.125)" d="M0 0h37.899v36.715H0z"/></clipPath><clipPath id="clip8_437_2210"><path fill="#fff" transform="rotate(30 -48.564 20.13)" d="M0 0h42.886v42.886H0z"/></clipPath><clipPath id="clip9_437_2210"><path fill="#fff" transform="rotate(30 41.186 355.08)" d="M0 0h42.886v42.886H0z"/></clipPath><clipPath id="clip10_437_2210"><path fill="#fff" transform="scale(-1 1) rotate(-30 98.815 338.231)" d="M0 0h38.493v38.493H0z"/></clipPath><clipPath id="clip11_437_2210"><path fill="#fff" transform="scale(-1 1) rotate(-30 -40.922 180.267)" d="M0 0h38.493v38.493H0z"/></clipPath></defs></svg>